<svg xmlns="http://www.w3.org/2000/svg" viewBox="0 0 111.92 91.25"><defs><style>.cls-1{fill:#fff;}</style></defs><title>ENTER_float@1x</title><g id="圖層_2" data-name="圖層 2"><g id="圖層_1-2" data-name="圖層 1"><path class="cls-1" d="M75.72,29.76a5,5,0,0,1-3.53-1.46L56,12.07,39.73,28.3a5,5,0,1,1-7.07-7.07L52.42,1.46a5,5,0,0,1,7.08,0L79.26,21.23a5,5,0,0,1-3.54,8.53Z"/><path class="cls-1" d="M0,72.85H10.87v2.43h-8V80.4H9.65v2.45H2.9v6h8.25v2.45H0Z"/><path class="cls-1" d="M23.75,72.85h3l6.1,10.8,1.93,3.9h.12c-.15-1.9-.37-4.12-.37-6.12V72.85h2.75v18.4h-3L28.17,80.4l-1.92-3.85h-.13c.15,1.9.38,4,.38,6v8.67H23.75Z"/><path class="cls-1" d="M54.6,75.28H49.2V72.85H62.92v2.43H57.5v16H54.6Z"/><path class="cls-1" d="M74.85,72.85H85.72v2.43h-8V80.4H84.5v2.45H77.75v6H86v2.45H74.85Z"/><path class="cls-1" d="M108.65,91.25l-4.18-7.42h-3v7.42H98.6V72.85h6c3.8,0,6.65,1.35,6.65,5.33a5.11,5.11,0,0,1-3.85,5.27l4.5,7.8ZM101.5,81.5h2.77c2.68,0,4.13-1.1,4.13-3.32s-1.45-3-4.13-3H101.5Z"/></g></g></svg>