<svg xmlns="http://www.w3.org/2000/svg" viewBox="0 0 100 100"><defs><style>.cls-1{fill:#eee;}</style></defs><title>layer</title><g id="圖層_2" data-name="圖層 2"><g id="圖層_1-2" data-name="圖層 1"><path class="cls-1" d="M50,3A47,47,0,1,1,3,50,47,47,0,0,1,50,3m0-3a50,50,0,1,0,50,50A50,50,0,0,0,50,0Z"/><polygon class="cls-1" points="50 65.23 34.12 57.95 22.38 63.33 50 76 77.62 63.33 65.88 57.95 50 65.23"/><polygon class="cls-1" points="77.62 36.67 50 49.34 22.38 36.67 50 24 77.62 36.67"/><polygon class="cls-1" points="50 51.9 34.12 44.62 22.38 50 50 62.67 77.62 50 65.88 44.62 50 51.9"/></g></g></svg>