<svg xmlns="http://www.w3.org/2000/svg" viewBox="0 0 100 100"><defs><style>.cls-1{fill:#eee;}</style></defs><title>print_1</title><g id="圖層_2" data-name="圖層 2"><g id="圖層_1-2" data-name="圖層 1"><path class="cls-1" d="M50,3A47,47,0,1,1,3,50,47,47,0,0,1,50,3m0-3a50,50,0,1,0,50,50A50,50,0,0,0,50,0Z"/><rect class="cls-1" x="33.06" y="25" width="33.87" height="19.35" rx="2.42"/><path class="cls-1" d="M68.55,42.74v1.61a2.42,2.42,0,0,1-2.42,2.42H33.87a2.42,2.42,0,0,1-2.42-2.42V42.74A2.42,2.42,0,0,0,29,40.32H27.42A2.42,2.42,0,0,0,25,42.74V57.26a2.42,2.42,0,0,0,2.42,2.42H29a2.42,2.42,0,0,0,2.42-2.42V55.65a2.42,2.42,0,0,1,2.42-2.42H66.13a2.42,2.42,0,0,1,2.42,2.42v1.61A2.42,2.42,0,0,0,71,59.68h1.61A2.42,2.42,0,0,0,75,57.26V42.74a2.42,2.42,0,0,0-2.42-2.42H71A2.42,2.42,0,0,0,68.55,42.74Z"/><path class="cls-1" d="M64.52,55.65h-29a2.42,2.42,0,0,0-2.42,2.41V72.58A2.42,2.42,0,0,0,35.48,75h29a2.42,2.42,0,0,0,2.42-2.42V58.06A2.42,2.42,0,0,0,64.52,55.65ZM62.9,70.11A.86.86,0,0,1,62,71H38a.86.86,0,0,1-.86-.86V68.6a.86.86,0,0,1,.86-.86H62a.86.86,0,0,1,.86.86Zm0-7.26a.86.86,0,0,1-.86.86H38a.86.86,0,0,1-.86-.86v-1.5a.86.86,0,0,1,.86-.87H62a.86.86,0,0,1,.86.87Z"/></g></g></svg>